<?xml version="1.0" standalone="no"?>
<!DOCTYPE svg PUBLIC "-//W3C//DTD SVG 20010904//EN"
 "http://www.w3.org/TR/2001/REC-SVG-20010904/DTD/svg10.dtd">
<svg version="1.0" xmlns="http://www.w3.org/2000/svg"
 width="808.000000pt" height="808.000000pt" viewBox="0 0 808.000000 808.000000"
 preserveAspectRatio="xMidYMid meet">
<metadata>
Created by potrace 1.14, written by Peter Selinger 2001-2017
</metadata>
<g transform="translate(0.000000,808.000000) scale(0.100000,-0.100000)"
fill="#000000" stroke="none">
<path d="M3978 7995 c-2 -2 -39 -6 -83 -9 -44 -3 -96 -8 -115 -11 -19 -2 -53
-7 -75 -10 -44 -6 -123 -19 -212 -36 -32 -6 -68 -12 -80 -14 -12 -2 -26 -6
-31 -9 -5 -3 -24 -8 -43 -11 -43 -9 -45 -9 -99 -25 -25 -7 -49 -14 -55 -16
-29 -6 -191 -58 -205 -65 -8 -5 -35 -15 -60 -23 -42 -13 -98 -35 -145 -56 -49
-21 -202 -92 -218 -101 -10 -6 -37 -20 -60 -31 -23 -12 -50 -28 -59 -36 -10
-8 -18 -12 -18 -8 0 4 -13 -2 -29 -13 -16 -12 -34 -21 -40 -21 -6 0 -11 -4
-11 -8 0 -4 -21 -19 -47 -33 -80 -42 -83 -44 -83 -51 0 -5 -7 -8 -15 -8 -8 0
-15 -5 -15 -10 0 -6 -11 -15 -25 -20 -14 -5 -31 -14 -38 -20 -44 -38 -61 -50
-67 -50 -3 0 -15 -8 -26 -18 -10 -10 -37 -31 -59 -47 -22 -17 -45 -34 -51 -40
-6 -5 -26 -21 -44 -35 -81 -61 -360 -334 -434 -423 -21 -26 -43 -44 -49 -40
-6 3 -7 1 -3 -6 5 -7 -4 -24 -22 -41 -17 -16 -28 -30 -26 -33 2 -2 -9 -17 -24
-33 -16 -17 -31 -38 -35 -47 -3 -9 -11 -17 -16 -17 -5 0 -13 -9 -16 -20 -4
-11 -11 -17 -17 -14 -6 4 -8 2 -5 -3 4 -6 -4 -22 -18 -37 -13 -14 -21 -26 -17
-26 4 0 -2 -7 -12 -15 -11 -8 -17 -15 -13 -15 4 0 -5 -18 -19 -40 -15 -22 -30
-37 -35 -34 -5 3 -6 -1 -3 -9 3 -8 -1 -21 -8 -28 -12 -13 -22 -31 -62 -104
-21 -37 -32 -45 -47 -32 -11 10 -11 9 -1 -4 10 -14 9 -24 -4 -53 -10 -19 -21
-33 -26 -30 -5 3 -7 2 -6 -3 4 -13 -24 -83 -34 -83 -4 0 -8 -9 -8 -20 0 -11
-4 -20 -10 -20 -5 0 -10 -6 -10 -13 0 -8 -13 -40 -29 -73 -15 -32 -34 -76 -42
-96 -7 -21 -17 -38 -23 -38 -5 0 -7 -3 -4 -6 4 -3 -5 -30 -18 -60 -13 -30 -24
-63 -24 -74 0 -10 -4 -21 -9 -24 -4 -3 -14 -27 -21 -53 -7 -27 -17 -53 -22
-60 -6 -7 -7 -17 -4 -22 4 -5 -2 -14 -11 -20 -10 -6 -13 -11 -6 -11 8 0 6 -16
-7 -50 -10 -27 -16 -50 -13 -50 4 0 -2 -10 -13 -22 -10 -12 -13 -18 -5 -13 10
5 12 4 7 -3 -4 -7 -9 -22 -12 -34 -3 -13 -6 -27 -8 -33 -6 -20 -24 -112 -25
-128 -1 -5 -7 -5 -13 -1 -10 5 -10 4 -1 -6 14 -15 5 -43 -11 -33 -7 4 -7 1 1
-9 7 -8 10 -18 7 -21 -3 -3 -8 -27 -11 -54 -2 -26 -8 -49 -13 -51 -6 -2 -10
-8 -10 -13 0 -6 4 -7 10 -4 11 7 2 -23 -12 -42 -5 -7 -5 -14 2 -18 6 -4 7 -13
1 -23 -4 -9 -6 -22 -4 -29 2 -7 -1 -21 -7 -32 -6 -12 -7 -21 -2 -21 5 0 7 -11
5 -24 -4 -17 -10 -23 -22 -20 -15 5 -15 5 0 -5 12 -8 15 -21 12 -53 -3 -24 -9
-48 -14 -54 -5 -6 -6 -14 -2 -18 12 -11 12 -40 1 -53 -7 -9 -7 -13 2 -13 9 0
9 -4 -1 -17 -8 -9 -9 -14 -4 -11 6 4 11 -2 11 -13 0 -10 -3 -19 -6 -19 -11 0
-8 -34 4 -49 9 -12 8 -13 -4 -6 -13 8 -13 7 -1 -8 7 -9 10 -17 5 -17 -5 0 -9
-23 -9 -50 -1 -28 3 -50 7 -50 4 0 5 -7 2 -15 -4 -8 -10 -13 -14 -10 -5 3 -12
1 -15 -5 -4 -6 -3 -10 2 -9 30 5 38 -18 18 -51 -3 -6 -2 -10 3 -10 5 0 9 -17
9 -37 -1 -33 7 -131 18 -243 2 -19 6 -48 9 -65 4 -16 9 -52 12 -80 7 -59 12
-90 14 -90 1 0 4 -13 6 -30 3 -16 9 -43 14 -60 5 -16 10 -48 12 -70 2 -22 6
-42 10 -45 4 -4 9 -22 10 -42 2 -20 6 -34 11 -31 4 2 7 -7 7 -20 0 -13 3 -27
7 -31 4 -3 8 -14 9 -24 3 -23 9 -43 19 -66 4 -10 8 -31 9 -46 1 -15 4 -26 8
-23 5 2 8 -5 8 -16 0 -11 5 -23 10 -26 6 -3 10 -17 10 -30 0 -13 5 -27 10 -30
8 -5 7 -12 -2 -23 -9 -11 -9 -13 -1 -9 13 8 37 -26 26 -37 -3 -3 -1 -6 5 -6 7
0 12 -10 12 -23 0 -12 8 -33 17 -46 9 -14 11 -21 5 -17 -6 3 1 -14 14 -39 14
-25 23 -45 19 -45 -3 0 1 -7 9 -16 9 -8 14 -20 11 -25 -4 -5 -1 -9 6 -9 6 0 9
-8 6 -20 -3 -11 -1 -18 3 -15 7 4 21 -24 23 -45 1 -3 9 -14 19 -24 22 -24 24
-50 2 -42 -9 3 -12 2 -9 -5 4 -5 12 -8 18 -6 13 4 47 -45 47 -68 0 -8 4 -15 9
-15 5 0 15 -16 22 -35 7 -19 17 -35 21 -35 4 0 8 -9 8 -21 0 -11 4 -17 10 -14
9 6 14 -7 8 -21 -2 -3 5 -10 14 -15 10 -6 18 -17 18 -24 0 -8 5 -15 10 -15 6
0 10 -9 10 -19 0 -10 7 -21 15 -25 8 -3 15 -12 15 -21 0 -8 6 -15 13 -15 8 0
7 -4 -3 -10 -13 -8 -12 -10 3 -10 11 0 21 -9 24 -20 3 -11 9 -20 14 -20 5 0 9
-7 9 -15 0 -8 5 -15 10 -15 6 0 10 -7 10 -16 0 -8 4 -13 8 -10 5 3 15 -10 22
-29 7 -19 17 -32 22 -29 4 3 8 0 8 -5 0 -10 19 -36 48 -66 17 -18 15 -28 -4
-21 -9 3 -12 2 -9 -5 4 -5 15 -7 26 -4 11 4 19 2 19 -4 0 -12 14 -29 68 -85
17 -19 32 -37 32 -40 0 -3 14 -19 30 -34 17 -16 30 -34 30 -40 0 -6 10 -14 21
-17 17 -6 19 -9 8 -16 -10 -6 -8 -9 9 -9 27 0 28 -8 5 -27 -16 -13 -16 -13 3
-4 17 8 25 6 43 -13 12 -12 18 -26 14 -31 -5 -4 -3 -5 3 -2 6 3 17 -2 26 -11
8 -9 48 -46 89 -82 41 -36 89 -80 108 -98 18 -17 37 -32 42 -32 5 0 9 -4 9 -8
0 -4 13 -16 30 -25 16 -10 28 -23 26 -30 -1 -7 -1 -9 1 -4 8 13 23 7 23 -9 0
-8 3 -13 8 -10 13 8 45 -22 36 -35 -4 -7 -3 -10 4 -6 11 8 72 -23 72 -36 0 -5
6 -5 13 -1 9 6 9 4 0 -7 -7 -7 -13 -18 -13 -23 0 -6 5 -4 10 4 7 12 13 13 27
3 10 -6 17 -16 16 -22 -2 -6 3 -8 11 -5 7 3 20 -2 29 -10 9 -9 19 -16 23 -16
4 0 22 -11 39 -25 18 -13 39 -26 46 -27 19 -4 38 -22 32 -30 -2 -4 3 -5 11 -2
9 3 26 -5 40 -19 14 -14 27 -23 29 -21 2 3 16 -2 30 -9 15 -8 24 -17 20 -20
-3 -4 6 -7 21 -7 16 0 25 -4 21 -10 -3 -5 0 -10 8 -10 17 0 80 -30 88 -43 3
-5 8 -8 10 -6 9 5 49 -13 44 -21 -3 -4 1 -8 8 -7 35 1 49 -4 44 -16 -4 -10 2
-13 19 -9 18 3 26 -1 33 -19 7 -16 10 -18 10 -7 1 14 5 14 26 5 14 -7 25 -15
25 -19 0 -4 7 -5 15 -2 17 7 20 -7 5 -22 -7 -7 -6 -11 4 -11 8 0 14 3 13 6 -4
12 19 12 55 0 21 -6 35 -16 31 -22 -3 -5 3 -6 16 -2 16 5 21 2 21 -12 0 -15 2
-16 10 -3 7 12 13 13 27 3 10 -6 17 -17 15 -24 -2 -10 0 -10 12 1 10 7 16 8
16 2 0 -6 9 -9 20 -7 11 2 20 -1 20 -6 0 -6 4 -8 8 -5 9 5 132 -29 164 -45 10
-5 27 -9 38 -9 14 0 19 -4 14 -12 -6 -10 -4 -10 8 0 10 8 18 9 22 3 4 -6 13
-8 20 -5 7 3 19 -2 26 -11 10 -12 16 -13 26 -4 10 8 14 8 14 0 0 -6 3 -10 8
-9 4 1 32 -2 62 -7 30 -4 58 -7 63 -7 4 1 7 -6 8 -15 0 -15 2 -15 9 2 5 11 9
15 9 9 1 -6 11 -10 24 -9 12 1 26 0 32 -3 5 -4 28 -8 49 -9 22 -2 45 -8 51
-13 7 -6 16 -5 23 2 7 7 12 8 12 2 0 -5 37 -10 82 -12 45 -1 85 -7 89 -13 4
-8 8 -7 12 2 4 12 7 11 16 -1 8 -12 11 -12 11 -1 0 11 3 11 17 0 9 -8 14 -9
10 -3 -6 11 21 13 39 2 5 -4 16 -3 23 2 8 4 25 5 40 1 14 -4 33 -7 41 -6 8 1
20 -2 26 -7 7 -5 17 -2 24 7 10 12 15 13 28 3 18 -16 16 -16 35 1 11 8 17 9
17 2 0 -7 8 -8 25 -1 17 7 25 6 25 -1 0 -7 5 -8 13 -3 15 11 38 11 56 0 9 -6
12 -5 8 0 -3 6 3 11 14 11 18 2 19 0 7 -15 -11 -15 -10 -15 8 0 21 19 39 24
30 10 -3 -5 1 -9 9 -9 8 0 14 3 13 6 -2 20 4 22 17 5 9 -10 14 -13 13 -5 -2 7
3 16 11 19 9 3 11 0 6 -8 -6 -10 -4 -11 6 -4 16 10 29 12 84 18 22 2 40 5 40
6 0 1 18 4 40 6 58 5 118 14 135 21 8 3 26 7 40 9 14 2 32 5 40 7 33 8 105 18
111 15 3 -2 13 3 21 9 8 7 34 15 58 17 25 2 46 9 48 15 2 6 8 11 13 11 4 0 6
-8 2 -17 -3 -12 1 -9 12 6 14 18 19 20 26 10 6 -10 9 -11 9 -1 0 6 8 12 18 12
10 0 23 5 30 12 7 7 12 9 12 5 0 -4 13 -1 29 7 22 12 31 12 40 3 10 -9 12 -9
9 3 -2 8 2 14 7 15 18 2 90 27 101 36 6 5 16 3 24 -4 8 -7 10 -8 7 -1 -6 10
42 38 58 35 3 -1 20 6 38 16 17 9 34 18 37 18 3 1 30 12 60 25 30 14 58 24 63
22 4 -1 7 2 7 8 0 5 6 10 13 10 7 0 19 6 26 13 6 6 15 12 19 13 18 2 162 76
162 83 0 5 12 12 26 15 14 4 31 11 37 17 36 30 91 59 103 55 8 -3 11 0 7 10
-3 8 1 14 10 14 8 0 17 5 19 10 2 6 13 12 25 12 14 2 19 7 15 17 -3 9 -1 12 6
7 6 -3 13 -2 17 4 4 6 11 8 16 4 5 -3 8 0 7 7 -2 7 2 13 9 14 6 0 25 12 42 28
17 15 34 27 38 27 5 0 23 14 41 31 18 17 37 27 44 23 6 -4 8 -3 5 3 -4 6 6 19
21 29 15 9 37 28 50 41 12 13 22 22 22 20 0 -3 14 8 31 24 17 16 36 26 42 22
5 -3 7 -2 4 4 -3 5 31 43 75 84 45 41 86 80 92 87 35 42 58 62 67 56 5 -3 8
-1 7 4 -3 10 54 80 112 140 14 15 24 30 23 34 -2 4 2 8 7 8 6 0 16 11 22 25 9
21 14 23 26 12 11 -8 13 -8 9 0 -9 15 2 45 14 37 5 -3 9 -2 8 3 -4 16 13 43
24 36 5 -3 7 -2 4 4 -3 5 7 24 23 42 16 17 29 34 29 37 -1 8 33 54 53 72 9 9
15 19 13 23 -3 3 6 18 20 33 13 15 25 30 25 34 0 4 7 15 15 25 8 9 15 22 15
27 0 6 5 10 10 10 6 0 10 5 10 11 0 13 80 152 92 160 6 3 9 8 8 10 -3 9 32 83
46 96 8 8 14 20 14 27 0 7 11 34 25 60 14 26 25 54 25 62 0 7 4 14 9 14 5 0
13 10 16 23 4 12 15 41 26 64 10 24 19 46 19 51 0 5 9 27 20 50 11 22 20 47
20 55 0 7 5 18 12 25 7 7 9 12 5 12 -4 0 -3 9 3 21 6 11 13 30 15 41 3 12 8
24 12 27 5 3 9 17 11 31 1 14 5 32 9 40 3 8 7 20 8 25 2 6 10 37 19 70 26 93
26 95 45 175 5 25 13 61 16 80 3 19 8 42 10 50 5 18 17 100 18 118 0 6 3 12 6
12 3 0 6 15 6 33 1 17 4 59 8 92 12 99 21 215 21 297 1 43 4 78 7 78 3 0 3 22
-1 48 -3 27 -3 60 1 75 4 14 5 28 2 31 -3 2 -7 45 -8 94 -4 88 -10 169 -20
247 -3 22 -7 61 -9 86 -2 26 -7 52 -10 58 -4 6 -5 11 -3 11 2 0 0 19 -5 43 -4
23 -10 56 -13 72 -2 17 -11 62 -20 100 -9 39 -19 81 -21 95 -3 14 -9 39 -14
55 -37 119 -62 204 -63 216 -2 13 -15 49 -37 104 -4 11 -13 36 -20 55 -14 41
-15 44 -71 175 -37 86 -71 155 -157 320 -51 97 -264 422 -316 482 -6 7 -15 18
-21 25 -88 115 -305 346 -430 459 -133 119 -410 329 -435 329 -5 0 -10 5 -10
10 0 6 -6 10 -14 10 -8 0 -16 4 -18 8 -4 9 -183 119 -183 112 0 -3 -13 5 -30
16 -48 34 -288 148 -430 204 -122 48 -386 130 -500 155 -49 11 -228 45 -260
50 -23 3 -51 7 -64 10 -12 2 -50 7 -84 10 -34 4 -75 9 -92 12 -31 5 -542 12
-547 8z"/>
<path d="M896 6082 c-3 -5 1 -9 9 -9 8 0 12 4 9 9 -3 4 -7 8 -9 8 -2 0 -6 -4
-9 -8z"/>
<path d="M576 5073 c-6 -14 -5 -15 5 -6 7 7 10 15 7 18 -3 3 -9 -2 -12 -12z"/>
<path d="M493 4615 c0 -8 4 -12 9 -9 5 3 6 10 3 15 -9 13 -12 11 -12 -6z"/>
<path d="M436 4278 c3 -5 10 -6 15 -3 13 9 11 12 -6 12 -8 0 -12 -4 -9 -9z"/>
<path d="M450 4200 c0 -5 5 -10 11 -10 5 0 7 5 4 10 -3 6 -8 10 -11 10 -2 0
-4 -4 -4 -10z"/>
<path d="M356 4122 c-3 -5 1 -9 9 -9 8 0 12 4 9 9 -3 4 -7 8 -9 8 -2 0 -6 -4
-9 -8z"/>
<path d="M495 4061 c-3 -5 -2 -12 3 -15 5 -3 9 1 9 9 0 17 -3 19 -12 6z"/>
<path d="M490 4020 c0 -5 5 -10 11 -10 5 0 7 5 4 10 -3 6 -8 10 -11 10 -2 0
-4 -4 -4 -10z"/>
<path d="M521 3914 c0 -11 3 -14 6 -6 3 7 2 16 -1 19 -3 4 -6 -2 -5 -13z"/>
<path d="M436 3893 c-6 -14 -5 -15 5 -6 7 7 10 15 7 18 -3 3 -9 -2 -12 -12z"/>
<path d="M495 3820 c3 -5 8 -10 11 -10 2 0 4 5 4 10 0 6 -5 10 -11 10 -5 0 -7
-4 -4 -10z"/>
<path d="M396 3762 c-3 -5 1 -9 9 -9 8 0 12 4 9 9 -3 4 -7 8 -9 8 -2 0 -6 -4
-9 -8z"/>
<path d="M466 3718 c3 -5 10 -6 15 -3 13 9 11 12 -6 12 -8 0 -12 -4 -9 -9z"/>
<path d="M494 3696 c1 -8 5 -18 8 -22 4 -3 5 1 4 10 -1 8 -5 18 -8 22 -4 3 -5
-1 -4 -10z"/>
<path d="M493 3575 c0 -8 4 -12 9 -9 5 3 6 10 3 15 -9 13 -12 11 -12 -6z"/>
<path d="M495 3520 c-3 -5 -1 -10 4 -10 6 0 11 5 11 10 0 6 -2 10 -4 10 -3 0
-8 -4 -11 -10z"/>
<path d="M529 3357 c6 -8 7 -18 3 -22 -4 -5 -1 -5 6 -1 10 6 10 11 1 22 -6 8
-14 14 -16 14 -3 0 0 -6 6 -13z"/>
<path d="M534 3296 c1 -8 5 -18 8 -22 4 -3 5 1 4 10 -1 8 -5 18 -8 22 -4 3 -5
-1 -4 -10z"/>
<path d="M353 3285 c0 -8 4 -12 9 -9 5 3 6 10 3 15 -9 13 -12 11 -12 -6z"/>
<path d="M555 3240 c3 -5 8 -10 11 -10 2 0 4 5 4 10 0 6 -5 10 -11 10 -5 0 -7
-4 -4 -10z"/>
<path d="M577 3155 c-4 -8 -3 -16 1 -19 4 -3 9 4 9 15 2 23 -3 25 -10 4z"/>
<path d="M635 3070 c-4 -6 -11 -7 -17 -4 -7 4 -8 2 -4 -5 6 -9 11 -9 22 0 14
11 18 19 10 19 -3 0 -8 -5 -11 -10z"/>
<path d="M555 3040 c-3 -5 -1 -10 4 -10 6 0 11 5 11 10 0 6 -2 10 -4 10 -3 0
-8 -4 -11 -10z"/>
<path d="M613 3025 c0 -8 4 -12 9 -9 5 3 6 10 3 15 -9 13 -12 11 -12 -6z"/>
<path d="M613 2975 c0 -8 4 -12 9 -9 5 3 6 10 3 15 -9 13 -12 11 -12 -6z"/>
<path d="M656 2938 c3 -4 11 -5 19 -1 21 7 19 12 -4 10 -11 0 -18 -5 -15 -9z"/>
<path d="M756 2903 c-6 -14 -5 -15 5 -6 7 7 10 15 7 18 -3 3 -9 -2 -12 -12z"/>
<path d="M716 2878 c3 -5 10 -6 15 -3 13 9 11 12 -6 12 -8 0 -12 -4 -9 -9z"/>
<path d="M693 2785 c0 -8 4 -12 9 -9 5 3 6 10 3 15 -9 13 -12 11 -12 -6z"/>
<path d="M730 2779 c0 -5 5 -7 10 -4 6 3 10 8 10 11 0 2 -4 4 -10 4 -5 0 -10
-5 -10 -11z"/>
<path d="M775 2780 c-3 -5 -1 -10 4 -10 6 0 11 5 11 10 0 6 -2 10 -4 10 -3 0
-8 -4 -11 -10z"/>
<path d="M693 2735 c0 -8 4 -12 9 -9 5 3 6 10 3 15 -9 13 -12 11 -12 -6z"/>
<path d="M734 2696 c1 -8 5 -18 8 -22 4 -3 5 1 4 10 -1 8 -5 18 -8 22 -4 3 -5
-1 -4 -10z"/>
<path d="M775 2700 c-3 -5 -1 -10 4 -10 6 0 11 5 11 10 0 6 -2 10 -4 10 -3 0
-8 -4 -11 -10z"/>
<path d="M775 2660 c-3 -5 -1 -10 4 -10 6 0 11 5 11 10 0 6 -2 10 -4 10 -3 0
-8 -4 -11 -10z"/>
<path d="M893 2595 c0 -8 4 -12 9 -9 5 3 6 10 3 15 -9 13 -12 11 -12 -6z"/>
<path d="M875 2541 c-3 -5 -2 -12 3 -15 5 -3 9 1 9 9 0 17 -3 19 -12 6z"/>
<path d="M770 2519 c0 -5 5 -7 10 -4 6 3 10 8 10 11 0 2 -4 4 -10 4 -5 0 -10
-5 -10 -11z"/>
<path d="M905 2520 c-3 -6 1 -7 9 -4 18 7 21 14 7 14 -6 0 -13 -4 -16 -10z"/>
<path d="M895 2460 c-3 -5 -1 -10 4 -10 6 0 11 5 11 10 0 6 -2 10 -4 10 -3 0
-8 -4 -11 -10z"/>
<path d="M890 2419 c0 -5 5 -7 10 -4 6 3 10 8 10 11 0 2 -4 4 -10 4 -5 0 -10
-5 -10 -11z"/>
<path d="M839 2233 c-13 -16 -12 -17 4 -4 9 7 17 15 17 17 0 8 -8 3 -21 -13z"/>
<path d="M1070 2241 c0 -6 4 -13 10 -16 6 -3 7 1 4 9 -7 18 -14 21 -14 7z"/>
<path d="M976 2222 c-3 -5 1 -9 9 -9 8 0 12 4 9 9 -3 4 -7 8 -9 8 -2 0 -6 -4
-9 -8z"/>
<path d="M1010 2219 c0 -5 5 -7 10 -4 6 3 10 8 10 11 0 2 -4 4 -10 4 -5 0 -10
-5 -10 -11z"/>
<path d="M1026 2118 c3 -5 10 -6 15 -3 13 9 11 12 -6 12 -8 0 -12 -4 -9 -9z"/>
<path d="M1149 2083 c-13 -16 -12 -17 4 -4 16 13 21 21 13 21 -2 0 -10 -8 -17
-17z"/>
<path d="M1036 2082 c-3 -5 1 -9 9 -9 8 0 12 4 9 9 -3 4 -7 8 -9 8 -2 0 -6 -4
-9 -8z"/>
<path d="M1096 2022 c-3 -4 4 -9 15 -9 23 -2 25 3 4 10 -8 4 -16 3 -19 -1z"/>
<path d="M1134 1942 c4 -3 14 -7 22 -8 9 -1 13 0 10 4 -4 3 -14 7 -22 8 -9 1
-13 0 -10 -4z"/>
<path d="M1313 1903 c4 -3 1 -13 -6 -22 -11 -14 -10 -14 5 -2 16 12 16 31 1
31 -4 0 -3 -3 0 -7z"/>
<path d="M1173 1855 c0 -8 4 -12 9 -9 5 3 6 10 3 15 -9 13 -12 11 -12 -6z"/>
<path d="M1380 1846 c0 -2 8 -10 18 -17 15 -13 16 -12 3 4 -13 16 -21 21 -21
13z"/>
<path d="M1230 1779 c0 -5 5 -7 10 -4 6 3 10 8 10 11 0 2 -4 4 -10 4 -5 0 -10
-5 -10 -11z"/>
<path d="M1335 1780 c-3 -5 -1 -10 4 -10 6 0 11 5 11 10 0 6 -2 10 -4 10 -3 0
-8 -4 -11 -10z"/>
<path d="M1299 1768 c-5 -18 -6 -38 -1 -34 7 8 12 36 6 36 -2 0 -4 -1 -5 -2z"/>
<path d="M1330 1740 c0 -5 5 -10 11 -10 5 0 7 5 4 10 -3 6 -8 10 -11 10 -2 0
-4 -4 -4 -10z"/>
<path d="M1150 1736 c0 -2 8 -10 18 -17 15 -13 16 -12 3 4 -13 16 -21 21 -21
13z"/>
<path d="M1435 1711 c-3 -5 -2 -12 3 -15 5 -3 9 1 9 9 0 17 -3 19 -12 6z"/>
<path d="M1475 1691 c-3 -5 -2 -12 3 -15 5 -3 9 1 9 9 0 17 -3 19 -12 6z"/>
<path d="M1376 1662 c-3 -5 1 -9 9 -9 8 0 12 4 9 9 -3 4 -7 8 -9 8 -2 0 -6 -4
-9 -8z"/>
<path d="M1415 1660 c3 -5 8 -10 11 -10 2 0 4 5 4 10 0 6 -5 10 -11 10 -5 0
-7 -4 -4 -10z"/>
<path d="M6826 1638 c3 -5 10 -6 15 -3 13 9 11 12 -6 12 -8 0 -12 -4 -9 -9z"/>
<path d="M1355 1600 c3 -5 8 -10 11 -10 2 0 4 5 4 10 0 6 -5 10 -11 10 -5 0
-7 -4 -4 -10z"/>
<path d="M1454 1576 c1 -8 5 -18 8 -22 4 -3 5 1 4 10 -1 8 -5 18 -8 22 -4 3
-5 -1 -4 -10z"/>
<path d="M1495 1580 c-3 -5 -1 -10 4 -10 6 0 11 5 11 10 0 6 -2 10 -4 10 -3 0
-8 -4 -11 -10z"/>
<path d="M1495 1540 c-3 -5 -1 -10 4 -10 6 0 11 5 11 10 0 6 -2 10 -4 10 -3 0
-8 -4 -11 -10z"/>
<path d="M1495 1499 c-3 -4 2 -6 10 -5 21 3 28 13 10 13 -9 0 -18 -4 -20 -8z"/>
<path d="M1714 1446 c1 -8 5 -18 8 -22 4 -3 5 1 4 10 -1 8 -5 18 -8 22 -4 3
-5 -1 -4 -10z"/>
<path d="M1745 1440 c-3 -6 1 -7 9 -4 18 7 21 14 7 14 -6 0 -13 -4 -16 -10z"/>
<path d="M1616 1418 c3 -4 11 -5 19 -1 21 7 19 12 -4 10 -11 0 -18 -5 -15 -9z"/>
<path d="M1430 1399 c0 -5 5 -7 10 -4 6 3 10 8 10 11 0 2 -4 4 -10 4 -5 0 -10
-5 -10 -11z"/>
<path d="M6635 1400 c3 -5 8 -10 11 -10 2 0 4 5 4 10 0 6 -5 10 -11 10 -5 0
-7 -4 -4 -10z"/>
<path d="M1735 1380 c3 -5 8 -10 11 -10 2 0 4 5 4 10 0 6 -5 10 -11 10 -5 0
-7 -4 -4 -10z"/>
<path d="M1855 1329 c-4 -6 -5 -12 -2 -15 2 -3 7 2 10 11 7 17 1 20 -8 4z"/>
<path d="M1640 1320 c8 -5 20 -10 25 -10 6 0 3 5 -5 10 -8 5 -19 10 -25 10 -5
0 -3 -5 5 -10z"/>
<path d="M1730 1300 c0 -5 5 -10 11 -10 5 0 7 5 4 10 -3 6 -8 10 -11 10 -2 0
-4 -4 -4 -10z"/>
<path d="M1873 1285 c0 -8 4 -15 9 -15 4 0 8 4 8 9 0 6 -4 12 -8 15 -5 3 -9
-1 -9 -9z"/>
<path d="M1914 1289 c-3 -6 2 -18 12 -27 17 -16 17 -16 5 0 -7 9 -10 22 -6 28
3 5 4 10 1 10 -3 0 -8 -5 -12 -11z"/>
<path d="M1876 1242 c-3 -5 1 -9 9 -9 8 0 12 4 9 9 -3 4 -7 8 -9 8 -2 0 -6 -4
-9 -8z"/>
<path d="M1986 1242 c-3 -5 1 -9 9 -9 8 0 12 4 9 9 -3 4 -7 8 -9 8 -2 0 -6 -4
-9 -8z"/>
<path d="M1875 1211 c-3 -5 -2 -12 3 -15 5 -3 9 1 9 9 0 17 -3 19 -12 6z"/>
<path d="M1795 1181 c-3 -5 -2 -12 3 -15 5 -3 9 1 9 9 0 17 -3 19 -12 6z"/>
<path d="M1930 1179 c0 -5 5 -7 10 -4 6 3 10 8 10 11 0 2 -4 4 -10 4 -5 0 -10
-5 -10 -11z"/>
<path d="M1879 1153 c-13 -16 -12 -17 4 -4 16 13 21 21 13 21 -2 0 -10 -8 -17
-17z"/>
<path d="M1935 1151 c-3 -5 -2 -12 3 -15 5 -3 9 1 9 9 0 17 -3 19 -12 6z"/>
<path d="M2035 1151 c-3 -5 -2 -12 3 -15 5 -3 9 1 9 9 0 17 -3 19 -12 6z"/>
<path d="M2156 1118 c3 -5 10 -6 15 -3 13 9 11 12 -6 12 -8 0 -12 -4 -9 -9z"/>
<path d="M1933 1095 c0 -8 4 -12 9 -9 5 3 6 10 3 15 -9 13 -12 11 -12 -6z"/>
<path d="M2095 1060 c3 -5 8 -10 11 -10 2 0 4 5 4 10 0 6 -5 10 -11 10 -5 0
-7 -4 -4 -10z"/>
<path d="M2090 1025 c0 -7 30 -13 34 -7 3 4 -4 9 -15 9 -10 1 -19 0 -19 -2z"/>
<path d="M2350 1026 c0 -2 7 -7 16 -10 8 -3 12 -2 9 4 -6 10 -25 14 -25 6z"/>
<path d="M6015 1020 c3 -5 8 -10 11 -10 2 0 4 5 4 10 0 6 -5 10 -11 10 -5 0
-7 -4 -4 -10z"/>
<path d="M2193 1005 c0 -8 4 -12 9 -9 5 3 6 10 3 15 -9 13 -12 11 -12 -6z"/>
<path d="M2260 1006 c0 -2 8 -10 18 -17 15 -13 16 -12 3 4 -13 16 -21 21 -21
13z"/>
<path d="M2133 975 c0 -8 4 -12 9 -9 5 3 6 10 3 15 -9 13 -12 11 -12 -6z"/>
<path d="M2226 962 c-3 -5 1 -9 9 -9 8 0 12 4 9 9 -3 4 -7 8 -9 8 -2 0 -6 -4
-9 -8z"/>
<path d="M2270 960 c0 -5 5 -10 11 -10 5 0 7 5 4 10 -3 6 -8 10 -11 10 -2 0
-4 -4 -4 -10z"/>
<path d="M2173 935 c0 -8 4 -12 9 -9 5 3 6 10 3 15 -9 13 -12 11 -12 -6z"/>
<path d="M5857 935 c-4 -8 -3 -16 1 -19 4 -3 9 4 9 15 2 23 -3 25 -10 4z"/>
<path d="M2259 928 c-5 -18 -6 -38 -1 -34 7 8 12 36 6 36 -2 0 -4 -1 -5 -2z"/>
<path d="M2550 926 c0 -2 7 -7 16 -10 8 -3 12 -2 9 4 -6 10 -25 14 -25 6z"/>
<path d="M2610 900 c0 -5 5 -10 11 -10 5 0 7 5 4 10 -3 6 -8 10 -11 10 -2 0
-4 -4 -4 -10z"/>
<path d="M5813 895 c0 -8 4 -12 9 -9 5 3 6 10 3 15 -9 13 -12 11 -12 -6z"/>
<path d="M2535 889 c-4 -6 -5 -12 -2 -15 2 -3 7 2 10 11 7 17 1 20 -8 4z"/>
<path d="M2300 886 c0 -2 8 -10 18 -17 15 -13 16 -12 3 4 -13 16 -21 21 -21
13z"/>
<path d="M2350 882 c0 -5 7 -9 15 -9 8 0 12 4 9 9 -3 4 -9 8 -15 8 -5 0 -9 -4
-9 -8z"/>
<path d="M2436 873 c-6 -14 -5 -15 5 -6 7 7 10 15 7 18 -3 3 -9 -2 -12 -12z"/>
<path d="M2419 848 c-5 -18 -6 -38 -1 -34 7 8 12 36 6 36 -2 0 -4 -1 -5 -2z"/>
<path d="M2707 839 c7 -7 15 -10 18 -7 3 3 -2 9 -12 12 -14 6 -15 5 -6 -5z"/>
<path d="M2490 820 c0 -5 5 -10 11 -10 5 0 7 5 4 10 -3 6 -8 10 -11 10 -2 0
-4 -4 -4 -10z"/>
<path d="M2530 819 c0 -5 5 -7 10 -4 6 3 10 8 10 11 0 2 -4 4 -10 4 -5 0 -10
-5 -10 -11z"/>
<path d="M2674 800 c0 -13 4 -16 10 -10 7 7 7 13 0 20 -6 6 -10 3 -10 -10z"/>
<path d="M2714 809 c-3 -6 -2 -15 3 -20 5 -5 9 -1 9 11 0 23 -2 24 -12 9z"/>
<path d="M2313 795 c0 -8 4 -12 9 -9 5 3 6 10 3 15 -9 13 -12 11 -12 -6z"/>
<path d="M5574 796 c1 -8 5 -18 8 -22 4 -3 5 1 4 10 -1 8 -5 18 -8 22 -4 3 -5
-1 -4 -10z"/>
<path d="M2890 780 c0 -5 5 -10 11 -10 5 0 7 5 4 10 -3 6 -8 10 -11 10 -2 0
-4 -4 -4 -10z"/>
<path d="M2510 765 c0 -5 5 -17 10 -25 5 -8 10 -10 10 -5 0 6 -5 17 -10 25 -5
8 -10 11 -10 5z"/>
<path d="M2626 758 c3 -5 10 -6 15 -3 13 9 11 12 -6 12 -8 0 -12 -4 -9 -9z"/>
<path d="M5700 766 c0 -2 8 -10 18 -17 15 -13 16 -12 3 4 -13 16 -21 21 -21
13z"/>
<path d="M2996 743 c-6 -14 -5 -15 5 -6 7 7 10 15 7 18 -3 3 -9 -2 -12 -12z"/>
<path d="M2590 739 c0 -5 5 -7 10 -4 6 3 10 8 10 11 0 2 -4 4 -10 4 -5 0 -10
-5 -10 -11z"/>
<path d="M2620 720 c-9 -6 -10 -10 -3 -10 6 0 15 5 18 10 8 12 4 12 -15 0z"/>
<path d="M2665 720 c-3 -6 1 -7 9 -4 18 7 21 14 7 14 -6 0 -13 -4 -16 -10z"/>
<path d="M5740 726 c0 -2 8 -10 18 -17 15 -13 16 -12 3 4 -13 16 -21 21 -21
13z"/>
<path d="M3120 700 c-9 -6 -10 -10 -3 -10 6 0 15 5 18 10 8 12 4 12 -15 0z"/>
<path d="M5415 701 c-3 -5 -2 -12 3 -15 5 -3 9 1 9 9 0 17 -3 19 -12 6z"/>
<path d="M2830 686 c0 -2 7 -7 16 -10 8 -3 12 -2 9 4 -6 10 -25 14 -25 6z"/>
<path d="M3173 675 c0 -8 4 -12 9 -9 4 3 8 9 8 15 0 5 -4 9 -8 9 -5 0 -9 -7
-9 -15z"/>
<path d="M2750 665 c0 -7 30 -13 34 -7 3 4 -4 9 -15 9 -10 1 -19 0 -19 -2z"/>
<path d="M3235 660 c-3 -5 -1 -10 4 -10 6 0 11 5 11 10 0 6 -2 10 -4 10 -3 0
-8 -4 -11 -10z"/>
<path d="M5255 661 c3 -3 17 -6 31 -7 13 0 22 2 19 5 -3 3 -17 6 -31 7 -13 0
-22 -2 -19 -5z"/>
<path d="M3275 649 c-4 -6 -5 -12 -2 -15 2 -3 7 2 10 11 7 17 1 20 -8 4z"/>
<path d="M2875 629 c-4 -6 -5 -12 -2 -15 2 -3 7 2 10 11 7 17 1 20 -8 4z"/>
<path d="M2926 622 c-3 -5 1 -9 9 -9 8 0 12 4 9 9 -3 4 -7 8 -9 8 -2 0 -6 -4
-9 -8z"/>
<path d="M5150 625 c0 -7 30 -13 34 -7 3 4 -4 9 -15 9 -10 1 -19 0 -19 -2z"/>
<path d="M5216 618 c3 -5 10 -6 15 -3 13 9 11 12 -6 12 -8 0 -12 -4 -9 -9z"/>
<path d="M3116 607 c3 -10 9 -15 12 -12 3 3 0 11 -7 18 -10 9 -11 8 -5 -6z"/>
<path d="M3019 588 c-5 -18 -6 -38 -1 -34 7 8 12 36 6 36 -2 0 -4 -1 -5 -2z"/>
<path d="M3295 580 c3 -5 8 -10 11 -10 2 0 4 5 4 10 0 6 -5 10 -11 10 -5 0 -7
-4 -4 -10z"/>
<path d="M3633 575 c0 -8 4 -12 9 -9 5 3 6 10 3 15 -9 13 -12 11 -12 -6z"/>
<path d="M4810 580 c0 -5 5 -10 11 -10 5 0 7 5 4 10 -3 6 -8 10 -11 10 -2 0
-4 -4 -4 -10z"/>
<path d="M4850 580 c0 -5 5 -10 11 -10 5 0 7 5 4 10 -3 6 -8 10 -11 10 -2 0
-4 -4 -4 -10z"/>
<path d="M4995 579 c-3 -4 2 -6 10 -5 21 3 28 13 10 13 -9 0 -18 -4 -20 -8z"/>
<path d="M2795 569 c-4 -6 -5 -12 -2 -15 2 -3 7 2 10 11 7 17 1 20 -8 4z"/>
<path d="M2873 555 c0 -8 4 -12 9 -9 5 3 6 10 3 15 -9 13 -12 11 -12 -6z"/>
<path d="M3696 558 c3 -5 10 -6 15 -3 13 9 11 12 -6 12 -8 0 -12 -4 -9 -9z"/>
<path d="M4596 562 c-3 -5 1 -9 9 -9 8 0 12 4 9 9 -3 4 -7 8 -9 8 -2 0 -6 -4
-9 -8z"/>
<path d="M4747 559 c7 -7 15 -10 18 -7 3 3 -2 9 -12 12 -14 6 -15 5 -6 -5z"/>
<path d="M5390 561 c0 -6 4 -13 10 -16 6 -3 7 1 4 9 -7 18 -14 21 -14 7z"/>
<path d="M3219 548 c-5 -18 -6 -38 -1 -34 7 8 12 36 6 36 -2 0 -4 -1 -5 -2z"/>
<path d="M4806 542 c-3 -5 1 -9 9 -9 8 0 12 4 9 9 -3 4 -7 8 -9 8 -2 0 -6 -4
-9 -8z"/>
<path d="M4914 542 c4 -3 14 -7 22 -8 9 -1 13 0 10 4 -4 3 -14 7 -22 8 -9 1
-13 0 -10 -4z"/>
<path d="M3555 531 c-3 -5 -2 -12 3 -15 5 -3 9 1 9 9 0 17 -3 19 -12 6z"/>
<path d="M4255 531 c-3 -5 -2 -12 3 -15 5 -3 9 1 9 9 0 17 -3 19 -12 6z"/>
<path d="M4595 531 c-3 -5 -2 -12 3 -15 5 -3 9 1 9 9 0 17 -3 19 -12 6z"/>
<path d="M3373 511 c0 -11 5 -18 9 -15 4 3 5 11 1 19 -7 21 -12 19 -10 -4z"/>
<path d="M4545 520 c-3 -6 1 -7 9 -4 18 7 21 14 7 14 -6 0 -13 -4 -16 -10z"/>
<path d="M4850 520 c0 -5 5 -10 11 -10 5 0 7 5 4 10 -3 6 -8 10 -11 10 -2 0
-4 -4 -4 -10z"/>
<path d="M3286 498 c3 -5 10 -6 15 -3 13 9 11 12 -6 12 -8 0 -12 -4 -9 -9z"/>
<path d="M3030 496 c0 -2 8 -10 18 -17 15 -13 16 -12 3 4 -13 16 -21 21 -21
13z"/>
<path d="M4113 487 c0 -8 6 -14 14 -14 9 0 10 4 2 14 -6 7 -12 13 -14 13 -1 0
-2 -6 -2 -13z"/>
<path d="M4273 485 c0 -8 4 -12 9 -9 5 3 6 10 3 15 -9 13 -12 11 -12 -6z"/>
<path d="M3236 478 c3 -5 10 -6 15 -3 13 9 11 12 -6 12 -8 0 -12 -4 -9 -9z"/>
<path d="M4555 480 c3 -5 8 -10 11 -10 2 0 4 5 4 10 0 6 -5 10 -11 10 -5 0 -7
-4 -4 -10z"/>
<path d="M3655 460 c-3 -5 -1 -10 4 -10 6 0 11 5 11 10 0 6 -2 10 -4 10 -3 0
-8 -4 -11 -10z"/>
<path d="M3710 465 c0 -7 30 -13 34 -7 3 4 -4 9 -15 9 -10 1 -19 0 -19 -2z"/>
<path d="M3930 459 c0 -5 5 -7 10 -4 6 3 10 8 10 11 0 2 -4 4 -10 4 -5 0 -10
-5 -10 -11z"/>
<path d="M4016 462 c-3 -5 1 -9 9 -9 8 0 12 4 9 9 -3 4 -7 8 -9 8 -2 0 -6 -4
-9 -8z"/>
<path d="M4055 460 c3 -5 8 -10 11 -10 2 0 4 5 4 10 0 6 -5 10 -11 10 -5 0 -7
-4 -4 -10z"/>
<path d="M4434 462 c4 -3 14 -7 22 -8 9 -1 13 0 10 4 -4 3 -14 7 -22 8 -9 1
-13 0 -10 -4z"/>
<path d="M4494 462 c4 -3 14 -7 22 -8 9 -1 13 0 10 4 -4 3 -14 7 -22 8 -9 1
-13 0 -10 -4z"/>
<path d="M4313 435 c0 -8 4 -12 9 -9 5 3 6 10 3 15 -9 13 -12 11 -12 -6z"/>
<path d="M4546 442 c-3 -5 1 -9 9 -9 8 0 12 4 9 9 -3 4 -7 8 -9 8 -2 0 -6 -4
-9 -8z"/>
<path d="M3935 421 c-3 -5 -2 -12 3 -15 5 -3 9 1 9 9 0 17 -3 19 -12 6z"/>
<path d="M4136 418 c3 -4 11 -5 19 -1 21 7 19 12 -4 10 -11 0 -18 -5 -15 -9z"/>
<path d="M4206 422 c-3 -5 1 -9 9 -9 8 0 12 4 9 9 -3 4 -7 8 -9 8 -2 0 -6 -4
-9 -8z"/>
<path d="M4256 422 c-3 -5 1 -9 9 -9 8 0 12 4 9 9 -3 4 -7 8 -9 8 -2 0 -6 -4
-9 -8z"/>
<path d="M3356 393 c-6 -14 -5 -15 5 -6 7 7 10 15 7 18 -3 3 -9 -2 -12 -12z"/>
<path d="M3836 393 c-6 -14 -5 -15 5 -6 7 7 10 15 7 18 -3 3 -9 -2 -12 -12z"/>
<path d="M3995 400 c3 -5 8 -10 11 -10 2 0 4 5 4 10 0 6 -5 10 -11 10 -5 0 -7
-4 -4 -10z"/>
</g>
</svg>
