<svg width="46" height="47" viewBox="0 0 46 47" fill="none" xmlns="http://www.w3.org/2000/svg">
<circle cx="23" cy="23" r="23" fill="#B6B6B6"/>
<ellipse cx="23" cy="35.5" rx="18" ry="7.5" fill="#E1E1E1"/>
<circle cx="23" cy="19" r="8" fill="#E1E1E1"/>
<path d="M23.0079 43.9768C23.1912 43.8556 23.3684 43.7241 23.5782 43.6514C23.8762 43.5481 24.1942 43.5041 24.5026 43.444C24.8341 43.3794 24.4757 43.4449 24.4005 43.4599" stroke="#E1E1E1" stroke-linecap="round"/>
<path d="M22.6347 43.3593C23.5913 43.3593 24.5582 43.2255 25.5156 43.2938C26.1293 43.3377 24.2902 43.1808 23.6779 43.12C23.1855 43.0711 22.696 42.9979 22.204 42.9461C22.1881 42.9444 22.0837 42.9354 22.054 42.9286C22.0149 42.9195 22.1335 42.9156 22.1736 42.915C22.4009 42.9114 22.6283 42.9156 22.8556 42.9118C23.3006 42.9043 23.7482 42.8629 24.1932 42.8711C24.4861 42.8765 23.6101 42.9299 23.319 42.9636C20.6807 43.2696 24.9265 42.7821 22.5597 43.0625C21.9431 43.1356 21.3221 43.1585 20.7021 43.183C20.1057 43.2065 18.3174 43.2181 18.9131 43.2556C19.148 43.2704 19.3882 43.2565 19.6229 43.2524C20.2241 43.2417 20.825 43.23 21.4263 43.23C21.5834 43.23 21.7406 43.23 21.8977 43.23C21.9822 43.23 21.7286 43.2325 21.644 43.23C21.1589 43.2158 20.6731 43.1389 20.1924 43.0785C19.5641 42.9996 18.9321 42.9257 18.3085 42.8137C18.2342 42.8003 18.2498 42.8013 18.3141 42.8001C18.3865 42.7989 18.6265 42.7993 18.6658 42.7993C19.3895 42.7993 20.1132 42.7993 20.8369 42.7993C21.0833 42.7993 21.3491 42.7767 21.5962 42.8025C21.8015 42.824 21.1837 42.8264 20.9773 42.8273C20.3055 42.8301 19.6325 42.8296 18.9641 42.7523C18.3445 42.6806 17.7161 42.5649 17.1121 42.4069C17.0462 42.3897 16.8528 42.3555 16.9191 42.3399C16.9352 42.3362 16.9521 42.3404 16.9686 42.3399C17.1036 42.3359 17.2384 42.3218 17.3729 42.3112C17.5595 42.2965 17.7457 42.2825 17.9328 42.2825C18.1213 42.2825 17.5559 42.2825 17.3674 42.2825C16.9329 42.2825 16.4985 42.2825 16.0641 42.2825C16.0559 42.2825 15.3981 42.2777 15.7754 42.2841C17.0632 42.3058 18.3757 42.2623 19.6453 42.5138C19.7627 42.5371 19.8777 42.5702 19.9946 42.5952C20.0421 42.6053 19.9754 42.6305 19.9579 42.639C19.7648 42.7341 19.5427 42.7855 19.3326 42.8225C18.8014 42.9159 18.2616 42.8989 17.7247 42.8998C17.6561 42.9 17.5176 42.8999 17.4391 42.903C17.4172 42.9039 17.3588 42.8949 17.3737 42.911C17.3953 42.9343 17.4353 42.9265 17.4663 42.9333C17.6993 42.9844 17.933 43.0259 18.1689 43.0617C18.8769 43.1693 19.587 43.2399 20.3017 43.2827C20.8818 43.3174 21.4629 43.3392 22.0412 43.3991C22.1288 43.4082 22.1724 43.4164 22.0524 43.4231C21.108 43.4755 20.1584 43.4684 19.213 43.4725C18.3851 43.4761 15.9014 43.4741 16.7293 43.4741C17.6965 43.4741 18.6637 43.4734 19.6309 43.4669C20.3001 43.4625 20.9693 43.4597 21.6385 43.4597C21.6386 43.4597 22.0881 43.44 21.8387 43.5012C21.4538 43.5957 21.0457 43.6132 20.6518 43.6304C20.1699 43.6515 19.6872 43.6464 19.205 43.6464C18.1727 43.6464 21.269 43.7024 22.3013 43.7038C22.8532 43.7046 23.4107 43.6866 23.9619 43.7245C24.0115 43.728 24.1555 43.7349 24.1086 43.7517C23.9747 43.7995 23.6898 43.7598 23.5678 43.7557C22.9563 43.7349 22.3593 43.6517 21.7597 43.5315C21.4926 43.478 21.2268 43.4179 20.9597 43.364C20.8023 43.3323 20.6303 43.3138 20.4748 43.2683C20.3833 43.2416 20.6651 43.2575 20.7603 43.2524C21.5199 43.2114 22.2683 43.0704 23.0087 42.9022C23.6658 42.753 24.3185 42.5844 24.9748 42.4317C25.1476 42.3914 25.6647 42.2695 25.4964 42.3256C25.4121 42.3537 25.3343 42.382 25.254 42.4229C25.1779 42.4616 25.0815 42.5169 25.0067 42.5585C24.9711 42.5782 24.8427 42.6255 24.8177 42.6693C24.8018 42.6971 24.8584 42.7099 24.8639 42.7116C24.943 42.7359 25.0156 42.7358 25.1 42.7371C25.7139 42.7468 26.3253 42.6473 26.9281 42.5433C27.772 42.3977 28.6146 42.2379 29.4549 42.0727C29.6793 42.0286 30.3564 41.917 30.1304 41.9523C29.0058 42.128 27.8875 42.3448 26.7558 42.4739C26.159 42.542 25.56 42.5712 24.962 42.6247C24.8629 42.6335 24.5688 42.6534 24.6669 42.6701C24.8817 42.7067 25.1193 42.6842 25.3353 42.6845C26.2926 42.6857 27.2507 42.6895 28.2074 42.6518C28.724 42.6315 29.239 42.5764 29.7556 42.5609C29.8155 42.5591 29.9217 42.552 29.8066 42.5792C29.5001 42.6516 29.1868 42.7039 28.8782 42.7658C28.2425 42.8935 27.6088 43.0303 26.9736 43.1599C26.6469 43.2265 26.5203 43.2487 26.1983 43.3098C26.0009 43.3473 25.7879 43.3733 25.5945 43.4326C25.4887 43.4651 25.8126 43.4744 25.9231 43.4805C26.6816 43.5222 27.4536 43.523 28.2114 43.4709C28.6391 43.4415 29.059 43.3727 29.4812 43.3034C29.6011 43.2838 29.6448 43.276 29.482 43.2739C27.7998 43.2525 26.1163 43.2731 24.434 43.2731C24.2304 43.2731 24.0267 43.2739 23.8231 43.2731C23.7438 43.2728 23.6629 43.2834 23.5854 43.2667C23.5638 43.2621 23.6188 43.236 23.6396 43.2284C23.8396 43.1553 24.0453 43.0941 24.2474 43.0275C24.7559 42.8597 25.2617 42.6863 25.7636 42.4994C26.2206 42.3293 26.7001 42.1783 27.1315 41.9475C27.1651 41.9295 27.2548 41.877 27.2926 41.8486C27.303 41.8408 27.2671 41.8548 27.2559 41.8614C26.9384 42.0473 26.623 42.2181 26.2844 42.3647C26.0046 42.4858 25.7211 42.5983 25.4414 42.7196C25.3873 42.7431 25.3159 42.7512 25.2843 42.8009C25.2799 42.8078 25.2892 42.8194 25.297 42.8217C25.344 42.8353 25.5562 42.8392 25.5698 42.8392C27.1241 42.8392 28.5992 42.2805 30.0579 41.8071C30.2801 41.735 30.4815 41.6705 30.6991 41.5926C30.73 41.5815 30.8851 41.5276 30.9384 41.4945C31.0865 41.4022 30.6006 41.5958 30.4511 41.6859C30.2391 41.8136 30.0288 41.956 29.8337 42.1086C29.8293 42.1121 29.7131 42.1943 29.7524 42.2179C29.8072 42.2508 29.9186 42.2367 29.9725 42.2331C30.6105 42.1896 31.2333 41.9364 31.8309 41.7306C32.3296 41.5588 32.8253 41.3757 33.332 41.2281C33.3464 41.2239 33.5777 41.1595 33.6031 41.1531C33.6593 41.139 33.751 41.112 33.6462 41.1818C32.8161 41.7352 31.8706 42.0932 30.9216 42.3798C30.6933 42.4488 30.4613 42.5158 30.2421 42.6111C30.0517 42.6938 30.4557 42.6619 30.463 42.6614C30.9353 42.625 31.4028 42.4968 31.858 42.3734C32.5435 42.1876 33.2191 41.9684 33.8743 41.6939C33.9759 41.6513 34.2771 41.5284 34.1678 41.5423C34.1119 41.5495 33.9872 41.5812 33.9445 41.5934C33.6141 41.6875 33.2878 41.8019 32.9643 41.9164C31.6675 42.3755 30.4111 43.0341 29.0282 43.1886C28.9708 43.195 28.7928 43.2354 28.9404 43.1758C29.3483 43.0111 29.7373 42.8002 30.1448 42.6326C30.7716 42.3749 31.4126 42.1515 32.0574 41.9435C32.359 41.8462 32.6109 41.7667 32.9124 41.6891C32.9869 41.6699 33.0619 41.6529 33.1374 41.638C33.1839 41.6289 33.3107 41.5912 33.2793 41.6269C33.221 41.6931 33.121 41.7049 33.0401 41.7401C32.7723 41.8566 32.5799 41.9352 32.2983 42.0432C31.3484 42.4076 30.3992 42.7881 29.4381 43.1216C28.9834 43.2793 28.5202 43.4268 28.0519 43.5395C27.8083 43.5982 28.1994 43.5223 28.2114 43.5188C28.6476 43.3913 29.0738 43.2116 29.4971 43.0482C30.0685 42.8276 30.6355 42.5961 31.2064 42.3742C31.2457 42.3589 31.3683 42.3131 31.4225 42.2849C31.4281 42.282 31.4429 42.2715 31.4369 42.2729C31.418 42.2775 31.4002 42.2861 31.3827 42.2945C31.2594 42.3532 31.1547 42.4179 31.0357 42.4915C30.5795 42.7737 30.138 43.0815 29.6742 43.3513C29.0262 43.7283 28.3661 43.9716 27.6276 44.0994C27.2208 44.1699 26.8043 44.2063 26.3913 44.2063C26.3258 44.2063 26.5192 44.1774 26.5835 44.1648C27.0944 44.0652 27.61 43.9971 28.1237 43.9144C28.5394 43.8475 28.9537 43.7735 29.3711 43.7182C29.4179 43.712 29.4645 43.7032 29.5115 43.699C29.5217 43.6981 29.4942 43.7106 29.4844 43.7134C29.1301 43.8152 28.7552 43.8706 28.3949 43.9431C27.0259 44.2184 25.6477 44.4372 24.2665 44.6418C23.7637 44.7163 23.2661 44.785 22.7575 44.7933C22.6465 44.7951 22.6152 44.7949 22.5238 44.7949C22.3646 44.7949 22.8417 44.7763 23 44.7598C24.8414 44.5687 26.6835 44.3584 28.5368 44.3379C28.8195 44.3348 29.1105 44.3206 29.3935 44.3363C29.44 44.3389 29.3005 44.3428 29.2539 44.3443C28.7577 44.3603 28.2611 44.3673 27.7648 44.3722C25.8303 44.3914 23.8952 44.3786 21.9607 44.3786C21.6767 44.3786 21.3793 44.3986 21.0953 44.3706C21.0822 44.3693 21.0467 44.3617 21.0586 44.3562C21.1414 44.3183 21.3204 44.3194 21.3968 44.3116C22.9967 44.1484 24.5998 44.034 26.2087 44.034C26.3278 44.034 26.6851 44.034 26.566 44.034C26.3196 44.034 26.073 44.0425 25.8266 44.0452C24.1325 44.0639 22.4386 44.0771 20.7444 44.0771C20.6763 44.0771 20.6082 44.0771 20.5402 44.0771C20.5327 44.0771 20.5104 44.0771 20.5178 44.0771C20.5399 44.0771 20.562 44.0771 20.584 44.0771C21.2596 44.0771 21.9315 44.0197 22.6028 43.9463C23.4801 43.8504 24.3547 43.7337 25.2332 43.648C25.7214 43.6003 26.2126 43.5682 26.6976 43.4924C26.8074 43.4753 26.4752 43.4909 26.3642 43.4956C25.1688 43.5471 23.9797 43.6713 22.7942 43.8298C21.9699 43.9401 21.1478 44.0529 20.3184 44.1186C20.0268 44.1417 19.7177 44.1792 19.4235 44.1624C19.3429 44.1578 19.5799 44.1206 19.6596 44.1082C20.3083 44.0071 20.9613 43.9755 21.6169 43.959C21.7624 43.9554 22.3147 43.9448 22.4831 43.9431C22.6012 43.9419 22.7212 43.9262 22.8372 43.9479C22.8788 43.9556 22.7577 43.9778 22.716 43.9846C22.2428 44.0613 21.7589 44.0831 21.2811 44.1066C20.6029 44.14 19.9216 44.1607 19.2425 44.1425C18.8437 44.1318 18.6066 44.1193 18.208 44.0898C17.9309 44.0694 17.6384 44.055 17.3642 43.9989C17.3245 43.9908 17.2137 43.9503 17.2541 43.9479C17.4592 43.9356 17.6694 43.9479 17.8746 43.9479C18.3957 43.9479 18.9168 43.9479 19.4379 43.9479C20.3541 43.9479 17.6056 43.9479 16.6894 43.9479C16.6803 43.9479 16.5106 43.9484 16.4669 43.9471C16.454 43.9467 16.4328 43.9507 16.4294 43.9383C16.4223 43.9123 16.4688 43.8937 16.4868 43.8904C16.57 43.8756 16.3503 43.7328 16.3353 43.7206C16.3299 43.7161 16.04 43.4674 16.0641 43.4534C16.1038 43.4302 16.1932 43.4454 16.2348 43.4454C16.3507 43.4454 16.4666 43.4454 16.5825 43.4454C16.7128 43.4454 16.903 43.4723 17.0252 43.4159C17.0439 43.4073 16.9949 43.3849 16.9749 43.38C16.8214 43.3422 16.6672 43.3 16.5123 43.2683C16.4742 43.2605 16.0413 43.2143 16.0617 43.1734C16.0815 43.1338 16.5259 43.406 16.5777 43.439C16.6971 43.5149 16.7271 43.6249 16.8146 43.7253C16.8984 43.8215 16.9913 43.9146 17.0962 43.9878C17.1665 44.0368 17.254 44.0508 17.3283 44.097C17.5019 44.205 17.7066 44.2565 17.8938 44.3355C17.9167 44.3452 17.9889 44.3824 17.9217 44.3913C17.7335 44.4164 17.5279 44.3929 17.3386 44.3929C17.3044 44.3929 17.2544 44.3824 17.3067 44.4025C17.3737 44.4283 17.4377 44.4533 17.5069 44.4735C17.6824 44.5246 17.8408 44.6104 18.0134 44.6689C18.2145 44.7371 18.4317 44.8062 18.6467 44.8093C19.0795 44.8154 19.5106 44.7949 19.9436 44.7949C20.1302 44.7949 20.3169 44.7949 20.5035 44.7949C20.5766 44.7949 20.6497 44.7949 20.7228 44.7949C20.7975 44.7949 20.5734 44.794 20.4987 44.7949C20.3787 44.7963 20.2688 44.838 20.1478 44.838C20.0096 44.838 19.8662 44.8268 19.7298 44.8523C19.4902 44.8973 19.258 44.9672 19.0104 44.9672C18.868 44.9672 18.7307 44.9496 18.5909 44.9241C18.5334 44.9137 18.612 44.8954 18.6291 44.8954C18.7142 44.8954 18.7994 44.8941 18.8844 44.8954C19.0157 44.8975 19.1473 44.9694 19.2768 44.9927C19.3753 45.0105 19.4724 45.039 19.5727 45.039C19.7357 45.039 19.8986 45.039 20.0616 45.039C20.8444 45.039 21.6261 45.0677 22.4089 45.0677C22.9223 45.0677 23.4357 45.0677 23.9491 45.0677C24.2316 45.0677 24.4967 45.0616 24.7754 45.0103C25.2801 44.9173 25.8079 44.8942 26.3004 44.7431C26.5127 44.6779 26.7191 44.6643 26.9337 44.6194C26.9869 44.6083 27.0233 44.5798 27.0709 44.5572C27.1355 44.5266 27.211 44.5149 27.279 44.4934C27.4317 44.4452 27.591 44.4308 27.7424 44.3786C27.9425 44.3096 28.143 44.2854 28.3478 44.2334C28.4537 44.2065 28.5582 44.1737 28.6605 44.1353C28.7097 44.1168 28.7616 44.0835 28.8144 44.0771C28.873 44.0699 28.9208 44.0325 28.9787 44.0197C28.9967 44.0157 28.9983 44.007 29.0122 43.9989C29.0527 43.9753 29.1339 43.9909 29.1781 43.9909C29.2816 43.9909 29.4025 44.0088 29.5043 43.9893C29.8064 43.9318 30.0837 43.7584 30.3657 43.6456C30.5414 43.5753 30.7085 43.4878 30.8754 43.3991C30.9173 43.3769 30.9678 43.3219 31.0142 43.313C31.0361 43.3088 30.9313 43.4964 30.9208 43.5124C30.8185 43.6686 30.6842 43.8428 30.5197 43.9359C30.1301 44.1564 29.6455 44.1784 29.2076 44.1927C28.9953 44.1997 28.8072 44.245 28.6014 44.29C28.481 44.3164 28.3554 44.3436 28.2338 44.3642C28.1952 44.3708 28.2866 44.3049 28.3199 44.2845C28.4241 44.2204 28.5299 44.1494 28.6397 44.0954C28.7027 44.0645 28.7722 44.0497 28.8399 44.0332C28.9803 43.999 29.1158 43.9477 29.2563 43.9144C29.5483 43.845 29.8491 43.8143 30.1424 43.7477C30.3304 43.7049 30.5164 43.6586 30.7031 43.6105C30.9046 43.5586 31.0655 43.4948 31.2503 43.3975C31.4794 43.2769 31.7281 43.1877 31.9633 43.0785C32.1258 43.003 32.2767 42.9056 32.4403 42.832C32.6165 42.7527 32.7986 42.6885 32.9731 42.6047C33.3025 42.4465 33.6115 42.2758 33.9174 42.0735C34.1282 41.9341 34.3458 41.8051 34.5531 41.6604C34.6876 41.5664 34.8049 41.4473 34.9367 41.3493C35.0748 41.2467 35.2483 41.1541 35.3467 41.0127C35.4288 40.8948 35.5445 40.8133 35.6546 40.7248C35.709 40.681 35.7992 40.5818 35.7104 40.7017C35.5295 40.946 35.3892 41.2189 35.2191 41.4706C34.9683 41.8415 34.557 41.9849 34.1758 42.1884C33.7431 42.4194 33.2342 42.46 32.7784 42.6271C32.6783 42.6638 32.5706 42.6761 32.4682 42.7068C32.3226 42.7505 32.1848 42.8111 32.0415 42.86C31.9101 42.9048 31.7798 42.9654 31.6459 42.9995C31.5377 43.0271 31.4178 43.0552 31.3188 43.1072C31.1986 43.1704 31.0751 43.2163 30.952 43.2723C30.8413 43.3226 30.7386 43.3953 30.6297 43.4502C30.3043 43.6142 29.9647 43.7522 29.6232 43.8761C29.4973 43.9217 29.3765 43.982 29.2475 44.0189C29.1492 44.0469 29.0492 44.0687 28.9564 44.1122C28.9276 44.1256 28.732 44.196 28.7227 44.2286C28.7144 44.2575 28.7005 44.2707 28.6788 44.2924C28.5805 44.3908 28.4559 44.4081 28.3454 44.4791C28.2582 44.5351 28.1803 44.6267 28.0974 44.692C28.0162 44.7559 27.8938 44.7732 27.7983 44.7933C27.5735 44.8406 27.3525 44.8865 27.1235 44.8962C26.9505 44.9036 26.778 44.9312 26.6051 44.9377C26.4951 44.9418 26.4006 44.9598 26.2924 44.9784C26.219 44.9909 26.1456 45.039 26.0731 45.039C25.9911 45.039 25.8999 45.068 25.8186 45.0821C25.75 45.094 25.6241 45.0838 25.5642 45.1187C25.5086 45.1512 25.446 45.1395 25.38 45.1395C25.2422 45.1395 25.1002 45.1296 24.9628 45.1411C24.8285 45.1523 24.6768 45.1783 24.5449 45.2113C24.402 45.247 24.2532 45.24 24.107 45.24C23.7581 45.24 23.4132 45.2113 23.0646 45.2113C22.7708 45.2113 22.477 45.2113 22.1832 45.2113C21.7807 45.2113 21.3782 45.2113 20.9757 45.2113C20.6646 45.2113 20.3465 45.2299 20.0361 45.2105C19.7837 45.1947 19.5094 45.1857 19.2784 45.0964C19.1154 45.0334 18.9618 44.9672 18.7903 44.9672C18.6055 44.9672 18.4252 44.8898 18.2415 44.8811C18.1296 44.8757 18.0319 44.8079 17.9225 44.7917C17.8517 44.7813 17.7883 44.7683 17.7199 44.7455C17.6743 44.7303 17.6179 44.6963 17.5699 44.6944C17.5057 44.6919 17.445 44.6536 17.3833 44.6514C17.3057 44.6486 17.2065 44.6268 17.1361 44.5971C17.0614 44.5657 16.9708 44.5708 16.892 44.5477C16.825 44.528 16.7552 44.5119 16.6878 44.4902C16.6278 44.471 16.5615 44.4585 16.5044 44.4328C16.4676 44.4163 16.4303 44.4233 16.3983 44.3937C16.3718 44.3693 16.3434 44.3893 16.3145 44.3722C16.1927 44.3 16.04 44.3266 15.9301 44.235" stroke="#E1E1E1" stroke-linecap="round"/>
<path d="M6.00895 34.3181C5.96085 34.3662 5.88712 34.4188 5.87006 34.487C5.85244 34.5575 5.87635 34.608 5.82429 34.6716C5.73489 34.7809 5.74336 34.9908 5.62543 35.0851C5.4605 35.2171 5.47512 35.5169 5.28611 35.6249C5.2157 35.6651 5.2267 35.8793 5.1851 35.9469C5.13778 36.0238 5.09126 36.143 5.06515 36.2278C5.02589 36.3554 5.01465 36.462 5.01465 36.5971C5.01465 36.755 5.15443 36.6979 5.2577 36.7897C5.35997 36.8806 5.48627 36.9643 5.59703 37.058C5.6555 37.1075 5.68374 37.1091 5.72644 37.1732C5.75237 37.2121 5.80926 37.2622 5.85112 37.2742C5.8865 37.2843 5.93163 37.4226 5.96634 37.4573C6.02015 37.5111 6.03385 37.5837 6.0926 37.6277C6.13838 37.6621 6.15455 37.7387 6.19361 37.7855C6.23289 37.8327 6.27111 37.8633 6.30882 37.9118C6.39775 38.0261 6.53818 38.097 6.61816 38.2227C6.6889 38.3339 6.79949 38.4387 6.88962 38.5352C7.12768 38.7903 7.32875 39.0242 7.61562 39.2328C7.92394 39.457 8.18357 39.7304 8.52154 39.9083C8.82073 40.0658 9.10344 40.2238 9.36117 40.4544C9.60861 40.6758 9.83167 40.898 10.1156 41.0683C10.4135 41.2471 10.6795 41.4632 10.9663 41.6617C11.0696 41.7333 11.3088 41.9468 11.435 41.96C11.5761 41.9749 11.7488 42.0826 11.8674 42.1589C12.0991 42.3078 12.4207 42.3489 12.6755 42.4493C13.0212 42.5855 13.3765 42.705 13.7298 42.8186C13.9431 42.8872 14.1482 42.9798 14.3611 43.0522C14.5151 43.1045 14.656 43.1689 14.8172 43.1958C14.9068 43.2107 14.9988 43.2185 15.0776 43.2668C15.1565 43.3152 15.228 43.3332 15.3175 43.3568C15.4509 43.392 15.5567 43.474 15.6837 43.5225C15.851 43.5864 15.7545 43.5063 15.6994 43.4089C15.5564 43.1557 15.3377 42.9197 15.2291 42.6513C15.1116 42.3611 14.9766 42.1559 14.7493 41.9379C14.5249 41.7226 14.2445 41.6142 13.9839 41.4487C13.772 41.3141 13.5986 41.0846 13.3557 40.9989C13.2738 40.9699 13.1529 40.9729 13.0653 40.9531C12.883 40.9119 12.6974 40.9205 12.5129 40.9073C12.2566 40.889 12.0252 40.7925 11.7917 40.8774C11.642 40.9318 11.5126 41.0794 11.3371 41.0794C11.2243 41.0794 11.4373 41.1534 11.4634 41.1583C11.6335 41.1904 11.7392 41.2727 11.8958 41.3445C12.174 41.472 12.4422 41.6039 12.7165 41.7422C13.0398 41.9052 13.2937 42.0878 13.5814 42.3104C13.8702 42.5338 14.2213 42.7456 14.5884 42.7902C14.8994 42.828 15.2018 42.9634 15.5037 43.0427C15.5519 43.0554 15.772 43.1006 15.7815 43.1816C15.7894 43.2485 15.7464 43.3098 15.7531 43.3805C15.7629 43.4831 15.9284 43.5513 15.9883 43.6204C16.0499 43.6914 16.0656 43.8176 16.0656 43.9076C16.0656 44.0196 16.0958 44.1785 15.9504 44.2027C15.8772 44.2149 15.5011 44.2056 15.7089 44.0923C15.7738 44.0569 15.6082 44.0437 15.5716 43.9786C15.5335 43.9108 15.5444 43.8634 15.4548 43.8634C15.3538 43.8634 15.2276 43.7829 15.1423 43.7356C15.0637 43.6919 14.9699 43.7131 14.8851 43.6646C14.7991 43.6154 14.6931 43.6195 14.6026 43.5793C14.509 43.5377 14.3906 43.4896 14.2901 43.4673C14.0426 43.4123 13.8719 43.2132 13.6509 43.1027C13.5035 43.029 13.326 43.0216 13.1679 42.9764C13.0129 42.9321 12.969 42.7457 12.8207 42.6923C12.6901 42.6453 12.5685 42.6721 12.4435 42.6166C12.3939 42.5945 12.3269 42.6199 12.2731 42.5992C12.1723 42.5605 12.0871 42.5415 11.989 42.484C11.8235 42.387 11.624 42.3523 11.4934 42.1999C11.426 42.1213 11.2628 42.0067 11.1651 41.9616C10.928 41.8522 10.7323 41.6734 10.4975 41.556C10.3327 41.4736 10.1585 41.4369 10.0146 41.3066C9.91095 41.2129 9.78434 41.1473 9.66104 41.0857C9.44601 40.9782 9.2946 40.7855 9.1339 40.6248C8.96417 40.4551 8.78038 40.164 8.56573 40.0567" stroke="#E1E1E1" stroke-linecap="round"/>
<path d="M5.35553 37.1023C5.35968 37.1355 5.39462 37.1383 5.41235 37.1654C5.43655 37.2024 5.4229 37.2653 5.44707 37.2948C5.49105 37.3486 5.5685 37.3618 5.61121 37.4211C5.72701 37.5819 5.83905 37.7249 5.93002 37.8977C5.97091 37.9754 6.02009 38.0463 6.05943 38.125C6.09696 38.2001 6.17892 38.2355 6.2141 38.3176C6.25476 38.4124 6.35496 38.4695 6.40034 38.5511C6.44622 38.6337 6.47429 38.7172 6.53291 38.7926C6.62978 38.9172 6.80863 39.053 6.93063 39.1588C7.00739 39.2253 7.1007 39.2642 7.17684 39.3308C7.2317 39.3788 7.34729 39.4523 7.41673 39.4902C7.59747 39.5888 7.7165 39.7725 7.86969 39.9021C7.96072 39.9791 8.04834 40.0636 8.138 40.142C8.20833 40.2036 8.29783 40.2189 8.36684 40.2841C8.49051 40.4009 8.64386 40.497 8.77719 40.6029C8.9719 40.7575 9.09854 40.9672 9.30433 41.1142C9.46243 41.2272 9.60786 41.3889 9.77465 41.4772C10.0482 41.6221 10.2168 41.8974 10.4691 42.0596C10.8254 42.2887 11.1498 42.6484 11.5786 42.7556C11.7413 42.7963 11.875 42.9014 12.0458 42.9276C12.275 42.9629 12.5022 43.0993 12.7355 43.147C12.9403 43.1889 13.1484 43.2988 13.3447 43.3743C13.4196 43.4031 13.4731 43.468 13.553 43.4879C13.6751 43.5184 13.7905 43.5513 13.9065 43.6079C14.1566 43.7297 14.4438 43.7774 14.6578 43.9425C14.8732 44.1086 15.1669 44.1105 15.4106 44.2171C15.6297 44.3129 15.8693 44.3345 16.0798 44.4459C16.2536 44.5379 16.4817 44.6136 16.6748 44.659C16.9927 44.7338 17.2933 44.8589 17.6091 44.9431C17.8704 45.0127 18.1519 45.0739 18.4014 45.1703C18.6121 45.2517 18.8382 45.3872 19.0674 45.3976C19.2075 45.404 19.3573 45.4613 19.4967 45.4892C19.6265 45.5151 19.7555 45.5185 19.885 45.5523C20.1664 45.6257 20.4527 45.6533 20.7467 45.6533C21.0502 45.6533 21.3372 45.7101 21.6447 45.7101C21.9767 45.7101 22.3086 45.7101 22.6406 45.7101C22.7803 45.7101 22.9209 45.7149 23.0604 45.7085C23.2822 45.6984 23.6241 45.7361 23.8243 45.6249C24.0248 45.5135 24.3108 45.5497 24.5298 45.4986C24.6245 45.4765 24.741 45.4335 24.8375 45.4276C25.2043 45.4054 25.5555 45.3692 25.9234 45.3692" stroke="#E1E1E1" stroke-linecap="round"/>
<path d="M39.3322 35.9375C39.3382 36.0855 39.3901 36.2189 39.4396 36.3573C39.4741 36.454 39.4614 36.5469 39.4885 36.6446C39.5306 36.7961 39.5027 36.9801 39.5027 37.137C39.5027 37.3837 39.4781 37.5884 39.4159 37.8267C39.3924 37.9167 39.3155 38.0608 39.2612 38.1392C39.1797 38.2569 39.1142 38.4079 38.9976 38.4943C38.8741 38.5858 38.8201 38.7558 38.7199 38.8652C38.6663 38.9237 38.5946 38.9694 38.551 39.0372C38.5011 39.1148 38.4622 39.233 38.3884 39.2897C38.1241 39.493 37.8767 39.7776 37.5709 39.9305C37.4973 39.9673 37.4357 40.0291 37.361 40.0694C37.3037 40.1003 37.2739 40.1693 37.2237 40.1925C37.0649 40.2658 36.8323 40.4178 36.7171 40.5523C36.6685 40.609 36.5506 40.638 36.4882 40.6833C36.3786 40.763 36.2596 40.8224 36.1505 40.9027C35.9676 41.0372 35.7267 41.0959 35.5271 41.2057C35.3189 41.3202 35.0731 41.3704 34.8595 41.4772C34.601 41.6064 34.3367 41.7091 34.0703 41.8181C33.7253 41.9592 33.3198 41.9658 32.9845 42.1148C32.6921 42.2447 32.3596 42.2947 32.0596 42.4147" stroke="#E1E1E1" stroke-linecap="round"/>
<path d="M26.4347 45.2271C26.4795 45.1873 26.6651 45.1703 26.6052 45.1703C26.5221 45.1703 26.4389 45.1703 26.3558 45.1703C26.2809 45.1703 25.9588 45.2429 26.1364 45.2823C26.4238 45.3462 26.7769 45.2329 27.0313 45.1198C27.1474 45.0682 27.2999 45.0634 27.429 45.0566C27.5174 45.052 27.5989 44.9762 27.6847 44.9714C27.7547 44.9675 27.8261 44.9714 27.8962 44.9714C27.9777 44.9714 28.0794 44.9325 28.1534 44.902C28.3728 44.8116 28.612 44.8441 28.8368 44.7378C29.1748 44.5781 29.5377 44.5654 29.8801 44.4285C30.0551 44.3585 30.2481 44.308 30.4135 44.217C30.5508 44.1415 30.6855 44.1135 30.8223 44.0497C30.9319 43.9985 31.0484 43.9561 31.1648 43.9203C31.3541 43.862 31.09 43.9504 31.0432 43.9771C30.9015 44.0581 30.6812 44.0324 30.5477 44.1318C30.4489 44.2053 30.3299 44.2629 30.2415 44.3464C30.1785 44.4059 30.2423 44.3748 30.3125 44.3748C30.4512 44.3748 30.629 44.3452 30.7513 44.2738C30.9336 44.1675 31.1638 44.2225 31.3494 44.0971C31.4682 44.0168 31.6209 44.0023 31.725 43.8982C31.8472 43.7761 31.9985 43.7288 32.1291 43.622C32.2686 43.5078 32.46 43.4851 32.5931 43.3742C32.6747 43.3062 32.8396 43.2551 32.9403 43.2038C33.1094 43.1176 33.266 43.0603 33.4453 42.9954C33.7591 42.8819 34.1444 42.7694 34.4065 42.5535C34.5575 42.4292 34.802 42.3728 34.9289 42.23C34.9938 42.157 35.0833 42.0744 35.1704 42.0327C35.271 41.9846 35.3385 41.9043 35.4418 41.8591C35.5896 41.7944 35.7617 41.6588 35.838 41.5182C35.8831 41.435 35.9383 41.3889 36.0147 41.3351C36.0696 41.2965 36.1794 41.2477 36.2136 41.1931C36.2982 41.0577 36.5612 40.9713 36.706 40.9311C36.768 40.9139 36.8238 40.8428 36.8765 40.808C36.9549 40.7562 37.042 40.7197 37.1274 40.6817C37.227 40.6375 37.3107 40.539 37.4178 40.4971C37.5263 40.4546 37.6316 40.385 37.7193 40.3061C37.8654 40.1746 38.0667 40.0343 38.1675 39.8579C38.2801 39.6609 38.5499 39.5078 38.622 39.2913C38.6563 39.1883 38.7703 39.182 38.8319 39.1066C38.8913 39.034 38.9751 38.9684 39.0261 38.892C39.1358 38.7273 39.3745 38.6186 39.4522 38.4438C39.4899 38.359 39.622 38.2913 39.6952 38.2386C39.7856 38.1735 39.8522 38.0564 39.9414 37.9829C40.0089 37.9273 40.0639 37.8414 40.1135 37.7698C40.161 37.7012 40.2431 37.6305 40.2713 37.5552C40.2994 37.4803 40.406 37.3566 40.456 37.2885C40.5319 37.185 40.5924 37.081 40.6674 36.9823C40.7422 36.884 40.767 36.8315 40.7811 36.7045C40.7894 36.6293 40.9094 36.5641 40.9373 36.4914C40.998 36.3338 41.1003 36.1563 41.2072 36.0227" stroke="#E1E1E1" stroke-linecap="round"/>
<path d="M40.8663 36.2501C40.9074 36.177 40.9588 36.2118 41.0146 36.1712C41.1052 36.1053 41.0398 36.248 41.0304 36.2722C41.0048 36.3388 40.8378 36.507 40.7826 36.5484C40.6608 36.6398 40.8379 36.7671 40.8379 36.4789C40.8379 36.3377 40.8503 36.2053 40.8032 36.0733C40.7437 35.9069 40.672 35.7685 40.6327 35.5967C40.5985 35.4469 40.5502 35.2712 40.4686 35.1406C40.4137 35.0528 40.3605 34.9695 40.3013 34.8849C40.249 34.8102 40.259 34.6885 40.2255 34.6024C40.181 34.4879 40.1966 34.3678 40.1419 34.2583C40.0929 34.1603 40.0261 33.9941 40.014 33.8859C39.9927 33.6936 40.0754 33.8683 40.1561 33.949C40.2387 34.0316 40.3383 34.1291 40.3565 34.2473C40.3758 34.3726 40.4965 34.4539 40.5664 34.5472C40.6278 34.629 40.6671 34.7157 40.74 34.7886C40.8596 34.9082 41.0551 35.0479 41.1157 35.2053C41.2342 35.5134 41.5325 35.7752 41.6033 36.0938C41.6321 36.2233 41.2605 36.3328 41.1772 36.3779C40.9009 36.5276 40.55 36.6516 40.3265 36.8751" stroke="#E1E1E1" stroke-linecap="round"/>
<circle cx="23" cy="23" r="22.5" stroke="black"/>
</svg>
